<svg id="Layer_1" data-name="Layer 1" xmlns="http://www.w3.org/2000/svg" xmlns:xlink="http://www.w3.org/1999/xlink" viewBox="0 0 1106.38 1347.62"><defs><style>.cls-1{fill:url(#linear-gradient);}.cls-2{fill:url(#linear-gradient-2);}.cls-3{fill:url(#linear-gradient-3);}.cls-4{fill:url(#linear-gradient-4);}.cls-5{fill:url(#linear-gradient-5);}.cls-6{fill:url(#linear-gradient-6);}.cls-7{fill:none;clip-rule:evenodd;}.cls-8{clip-path:url(#clip-path);}.cls-9{fill:url(#linear-gradient-7);}.cls-10{mask:url(#mask);}.cls-11{fill:#215605;}.cls-11,.cls-14,.cls-19,.cls-21{fill-rule:evenodd;}.cls-12{mask:url(#mask-2);}.cls-13{mask:url(#mask-3);}.cls-14{fill:#ecf955;}.cls-15{mask:url(#mask-4);}.cls-16{clip-path:url(#clip-path-2);}.cls-17{fill:url(#linear-gradient-8);}.cls-18{mask:url(#mask-5);}.cls-19{fill:#4d4d4d;}.cls-20{mask:url(#mask-6);}.cls-21{fill:#ecf0f1;}</style><linearGradient id="linear-gradient" x1="-660.49" y1="2376.42" x2="457.25" y2="725.88" gradientTransform="translate(628.36 -609.84)" gradientUnits="userSpaceOnUse"><stop offset="0" stop-color="#fff"/><stop offset="1"/></linearGradient><linearGradient id="linear-gradient-2" x1="257.64" y1="2897.89" x2="-309.18" y2="743.82" gradientTransform="translate(622.11 -609.83)" xlink:href="#linear-gradient"/><linearGradient id="linear-gradient-3" x1="78.26" y1="303.45" x2="-127.39" y2="1270.55" gradientTransform="translate(623.44 -658.33)" xlink:href="#linear-gradient"/><linearGradient id="linear-gradient-4" x1="1145.87" y1="-890.51" x2="-522.06" y2="1958.98" gradientTransform="translate(635.56 -616.06)" xlink:href="#linear-gradient"/><linearGradient id="linear-gradient-5" x1="-1229.48" y1="3927.86" x2="328.52" y2="377.66" gradientTransform="translate(637.43 -621.66)" xlink:href="#linear-gradient"/><linearGradient id="linear-gradient-6" x1="-287.8" y1="1752.28" x2="285.6" y2="605.59" gradientTransform="translate(628.18 -589.92)" gradientUnits="userSpaceOnUse"><stop offset="0"/><stop offset="0.47" stop-color="#fff"/><stop offset="1"/></linearGradient><clipPath id="clip-path"><path id="SVGID" class="cls-7" d="M553.23,14.69c305.46,0,553.08,247.62,553.08,553.09s-247.62,553.09-553.08,553.09S.14,873.24.14,567.78,247.76,14.69,553.23,14.69"/></clipPath><linearGradient id="linear-gradient-7" x1="334.27" y1="1239.95" x2="788.94" y2="-155.85" gradientUnits="userSpaceOnUse"><stop offset="0" stop-color="#328b09"/><stop offset="1" stop-color="#ecf955"/></linearGradient><mask id="mask" x="66.21" y="586.29" width="1039.83" height="534.65" maskUnits="userSpaceOnUse"><rect class="cls-1" x="66.21" y="586.29" width="1039.83" height="534.65"/></mask><mask id="mask-2" x="0" y="479.31" width="976.47" height="641.71" maskUnits="userSpaceOnUse"><rect class="cls-2" y="479.31" width="976.47" height="641.71"/></mask><mask id="mask-3" x="14" y="14.28" width="1092.38" height="592.59" maskUnits="userSpaceOnUse"><rect class="cls-3" x="14" y="14.28" width="1092.38" height="592.59"/></mask><mask id="mask-4" x="142.49" y="82.66" width="848.26" height="972.33" maskUnits="userSpaceOnUse"><rect class="cls-4" x="142.49" y="82.66" width="848.26" height="972.33"/></mask><clipPath id="clip-path-2"><path id="SVGID-2" data-name="SVGID" class="cls-7" d="M356.4,1285.42a131.49,131.49,0,0,1-179.53,20.27A833.75,833.75,0,0,1,1086.13,75c-282.78,138.49-38.49,1166.45-923.75,865.83a619.09,619.09,0,0,0,194,344.6"/></clipPath><linearGradient id="linear-gradient-8" x1="-410.61" y1="2952.88" x2="909.83" y2="-186.12" gradientUnits="userSpaceOnUse"><stop offset="0"/><stop offset="1" stop-color="#fff"/></linearGradient><mask id="mask-5" x="162.38" y="73.6" width="923.75" height="922.02" maskUnits="userSpaceOnUse"><rect class="cls-5" x="162.38" y="73.6" width="923.75" height="922.02"/></mask><mask id="mask-6" x="64.25" y="53.45" width="1021.88" height="1278.65" maskUnits="userSpaceOnUse"><rect class="cls-6" x="64.25" y="53.45" width="1021.88" height="1278.65"/></mask></defs><g class="cls-8"><rect class="cls-9" x="0.14" y="14.69" width="1106.18" height="1106.18"/></g><g class="cls-10"><path class="cls-11" d="M1106,586.3c-8.39,249.78-183.23,462.92-426.56,520S184.79,1050.17,66.21,830.16A965.61,965.61,0,0,0,1106,586.3"/></g><g class="cls-12"><path class="cls-11" d="M7.17,479.31A553.1,553.1,0,0,0,976.46,923.85c-388.5,111-800-77.67-969.29-444.54"/></g><g class="cls-13"><path class="cls-14" d="M14,444.19C78.42,162.42,348.93-22.24,634.8,20.39S1125.53,318.56,1105,606.87A618.69,618.69,0,0,0,14,444.19"/></g><g class="cls-15"><path class="cls-11" d="M819,82.66a555.9,555.9,0,0,1,171.7,146.76c-91.38,326,7.32,972.39-741.7,795.44q.87,3,1.79,6.05a555.88,555.88,0,0,1-107.49-91.79A833.7,833.7,0,0,1,819,82.66"/></g><g class="cls-16"><rect class="cls-17" x="10.06" width="1076.08" height="1347.62"/></g><g class="cls-18"><path class="cls-19" d="M162.38,940.82C895.32,1189.72,854,527.89,978.54,214.18,1004.43,149,1037.48,98.82,1086.13,75c0,0-93.15-16-187.39,60.87-52.4,42.77-105.13,114.28-142.38,233.27-104.24,333-307.64,526.59-594,571.69"/></g><g class="cls-20"><path class="cls-21" d="M331.51,1286.08a636.46,636.46,0,0,1-186.21-342l-5.57-29.31L168,924.35c104.52,35.49,225.93,63.78,336.93,50.59,77.74-9.23,145.57-38.34,202.06-93,86.93-84.19,130.81-213.62,161.52-327.83,13.8-51.35,25.73-103.15,38.14-154.84,11.59-48.26,23.55-96.82,38.82-144.06C964.7,195.6,992.63,126.46,1042,83.69A816.36,816.36,0,0,0,190.09,1293.81a114.3,114.3,0,0,0,141.42-7.73m24.89-.66a131.49,131.49,0,0,1-179.53,20.27A833.75,833.75,0,0,1,1086.13,75c-282.78,138.49-38.49,1166.45-923.75,865.83A619.09,619.09,0,0,0,356.4,1285.42Z"/></g></svg>